<!DOCTYPE svg PUBLIC "-//W3C//DTD SVG 1.1//EN" "http://www.w3.org/Graphics/SVG/1.1/DTD/svg11.dtd">
<!-- Uploaded to: SVG Repo, www.svgrepo.com, Transformed by: SVG Repo Mixer Tools -->
<svg fill="#afb2da" height="800px" width="800px" version="1.1" id="Layer_1" xmlns="http://www.w3.org/2000/svg" xmlns:xlink="http://www.w3.org/1999/xlink" viewBox="0 0 455 455" xml:space="preserve">
<g id="SVGRepo_bgCarrier" stroke-width="0"/>
<g id="SVGRepo_tracerCarrier" stroke-linecap="round" stroke-linejoin="round"/>
<g id="SVGRepo_iconCarrier"> <polygon points="394.167,224.375 394.167,136.667 242.5,136.667 242.5,80 302.5,80 302.5,0 152.5,0 152.5,80 212.5,80 212.5,136.667 60.833,136.667 60.833,223.333 0,223.333 0,303.333 151.667,303.333 151.667,223.333 90.833,223.333 90.833,166.667 212.5,166.667 212.5,375 151.667,375 151.667,455 303.333,455 303.333,375 242.5,375 242.5,166.667 364.167,166.667 364.167,224.375 303.333,224.375 303.333,304.375 455,304.375 455,224.375 "/> </g>
</svg>