<svg role="img" viewBox="0 0 24 24" xmlns="http://www.w3.org/2000/svg" id="Unrealengine--Streamline-Simple-Icons" height="24" width="24">
  <desc>
    Unrealengine Streamline Icon: https://streamlinehq.com
  </desc>
  <title>Unreal Engine</title>
  <path d="M12 0a12 12 0 1 0 12 12A12 12 0 0 0 12 0zm0 23.52A11.52 11.52 0 1 1 23.52 12 11.52 11.52 0 0 1 12 23.52zm7.13 -9.791c-0.206 0.997 -1.126 3.557 -4.06 4.942l-1.179 -1.325 -1.988 2a7.338 7.338 0 0 1 -5.804 -2.978 2.859 2.859 0 0 0 0.65 0.123c0.326 0.006 0.678 -0.114 0.678 -0.66v-5.394a0.89 0.89 0 0 0 -1.116 -0.89c-0.92 0.212 -1.656 2.509 -1.656 2.509a7.304 7.304 0 0 1 2.528 -5.597 7.408 7.408 0 0 1 3.73 -1.721c-1.006 0.573 -1.57 1.507 -1.57 2.29 0 1.262 0.76 1.109 0.984 0.923v7.28a1.157 1.157 0 0 0 0.148 0.256 1.075 1.075 0 0 0 0.88 0.445c0.76 0 1.747 -0.868 1.747 -0.868V9.172c0 -0.6 -0.452 -1.324 -0.905 -1.572 0 0 0.838 -0.149 1.484 0.346a5.537 5.537 0 0 1 0.387 -0.425c1.508 -1.48 2.929 -1.902 4.112 -2.112 0 0 -2.151 1.69 -2.151 3.96 0 1.687 0.043 5.801 0.043 5.801 0.799 0.771 1.986 -0.342 3.059 -1.441Z" fill="#afb2da" stroke-width="1"></path>
</svg>